<svg width="425" height="81" viewBox="0 0 425 81" fill="none" xmlns="http://www.w3.org/2000/svg">
<path d="M0 79.0494H77.1045V1.32803H0V79.0494Z" fill="white"/>
<path d="M115.348 79.0494H192.453V1.32803H115.348V79.0494ZM124.572 10.4292H183.373V69.8037H124.572V10.4292Z" fill="white"/>
<path d="M229.463 40.3528C229.463 62.5743 247.315 80.8999 269.485 80.8999C291.656 80.8999 309.652 62.5743 309.652 40.3528C309.652 18.1313 291.656 0.0943604 269.485 0.0943604C247.315 0.0943604 229.463 18.1313 229.463 40.3528ZM269.485 72.0978C252.641 72.0978 238.965 57.8126 238.965 40.3528C238.965 22.3159 252.641 8.89639 269.485 8.89639C286.473 8.89639 300.15 22.3159 300.15 40.3528C300.15 58.2455 286.473 72.0978 269.485 72.0978Z" fill="white"/>
<path d="M344.811 40.3528C344.811 62.5743 362.663 80.8999 384.834 80.8999C407.004 80.8999 425 62.5743 425 40.3528C425 18.1313 407.004 0.0943604 384.834 0.0943604C362.663 0.0943604 344.811 18.1313 344.811 40.3528Z" fill="white"/>
</svg>
