<svg id="Ebene_1" data-name="Ebene 1" xmlns="http://www.w3.org/2000/svg" viewBox="0 0 514.44 81"><defs><style>.cls-1{fill:#fff;}</style></defs><title>generate-logo</title><path class="cls-1" d="M514.26,1.88H504V53.73h10.3Z"/><path class="cls-1" d="M187.67,56.83V1.88h12.7V79.12H186.46L155.88,24.17v55h-12.7V1.88h13.91Z"/><path class="cls-1" d="M374.55,57.93,364,23l-10.71,35L349.38,69.3l-3.31,9.82H332.71L359.42,1.88h8.95l26.71,77.24H381.73l-3.32-9.82Z"/><path class="cls-1" d="M406.91,13.24h-19.1V1.88h51V13.24h-19.2V79.12h-12.7V13.24Z"/><path class="cls-1" d="M42.39,81C17.77,81,0,63.34,0,40.5,0,17.88,17.44,0,41.07,0c12.8,0,23.07,4.3,30.36,11.81l-8.08,8.4a34.72,34.72,0,0,0-22.28-8.84c-16.45,0-28,13.57-28,29.13C13,56.39,24.4,69.63,42.28,69.63c7.07,0,14.35-1.49,18.77-5.13v-18l12.59-.16V69.74C66.57,77.36,54.43,81,42.39,81Z"/><path class="cls-1" d="M328.64,24.07c0-12.95-9.91-22.19-24.16-22.19H273.66V79.12h12.7V46.18h12.69l14.13,32.93h14.46l-15-34A21.34,21.34,0,0,0,328.64,24.07ZM286.36,34.81V13.24h17c8.05,0,12.52,4.21,12.52,10.9,0,6.47-4.46,10.67-12.52,10.67Z"/><path class="cls-1" d="M215.38,35.09V1.88H260V13.24H228.07V35.09Z"/><path class="cls-1" d="M228.07,46.46V67.75H260V79.12h-44.6V46.3Z"/><rect class="cls-1" x="238.67" y="35.09" width="10.66" height="11.21"/><rect class="cls-1" x="41.37" y="35.09" width="11.21" height="11.21"/><path class="cls-1" d="M84.9,35.09V1.88h44.6V13.24H97.6V35.09Z"/><path class="cls-1" d="M97.6,46.46V67.75h31.9V79.12H84.9V46.3Z"/><rect class="cls-1" x="108.19" y="35.09" width="10.66" height="11.21"/><path class="cls-1" d="M445.53,35.09V1.88h44.6V13.24H458.22V35.09Z"/><path class="cls-1" d="M458.22,46.46V67.75h31.91V79.12h-44.6V46.3Z"/><rect class="cls-1" x="468.82" y="35.09" width="10.66" height="11.21"/><rect class="cls-1" x="358.57" y="57.93" width="10.66" height="11.21"/><rect class="cls-1" x="503.78" y="67.91" width="10.66" height="11.21"/></svg>